<svg width="201" height="42" viewBox="0 0 201 42" fill="none" xmlns="http://www.w3.org/2000/svg">
<path d="M0 4C0 1.79086 1.79086 0 4 0H119V42H4C1.79086 42 0 40.2091 0 38V4Z" fill="#505050"/>
<path d="M119 0H197C199.209 0 201 1.79086 201 4V38C201 40.2091 199.209 42 197 42H119V0Z" fill="url(#paint0_linear_865_471)"/>
<path d="M189.506 21.4808C189.506 24.9408 186.946 27.1808 183.786 27.1808C180.646 27.1808 178.266 24.9408 178.266 21.4808C178.266 18.0208 180.746 15.8008 183.886 15.8008C187.026 15.8008 189.506 18.0208 189.506 21.4808ZM180.586 21.4808C180.586 23.9808 182.066 25.2008 183.786 25.2008C185.486 25.2008 187.166 23.9808 187.166 21.4808C187.166 18.9808 185.546 17.7808 183.846 17.7808C182.126 17.7808 180.586 18.9808 180.586 21.4808Z" fill="white"/>
<path d="M173.444 27.0008V20.8408C173.444 18.8208 172.344 17.7808 170.684 17.7808C169.004 17.7808 167.904 18.8208 167.904 20.8408V27.0008H165.644V20.8408C165.644 18.8208 164.544 17.7808 162.884 17.7808C161.204 17.7808 160.104 18.8208 160.104 20.8408V27.0008H157.824V15.9808H160.104V17.2408C160.844 16.3408 162.044 15.8008 163.364 15.8008C165.104 15.8008 166.564 16.5408 167.324 17.9808C168.004 16.6408 169.564 15.8008 171.164 15.8008C173.744 15.8008 175.704 17.4208 175.704 20.5008V27.0008H173.444Z" fill="white"/>
<path d="M149.72 17.7208C148.18 17.7208 146.94 18.7608 146.7 20.5008H152.8C152.76 18.8008 151.42 17.7208 149.72 17.7208ZM154.88 23.7208C154.26 25.6408 152.52 27.1808 149.82 27.1808C146.66 27.1808 144.32 24.9408 144.32 21.4808C144.32 18.0208 146.56 15.8008 149.82 15.8008C152.96 15.8008 155.18 17.9808 155.18 21.2208C155.18 21.6008 155.16 21.9608 155.1 22.3408H146.68C146.84 24.1608 148.14 25.2608 149.82 25.2608C151.22 25.2608 152 24.5808 152.42 23.7208H154.88Z" fill="white"/>
<path d="M135.04 13.0996C139.5 13.0996 142.42 15.7996 142.42 20.0996C142.42 24.3796 139.5 26.9996 135.04 26.9996H130.5V13.0996H135.04ZM132.78 25.1396H135.04C138.32 25.1396 140.08 23.2596 140.08 20.0996C140.08 16.9196 138.32 14.9596 135.04 14.9596H132.78V25.1396Z" fill="white"/>
<path d="M92.457 21.0199C92.457 16.8599 95.637 13.9199 99.557 13.9199C102.457 13.9199 104.957 15.3799 106.017 18.0999H103.277C102.537 16.6199 101.217 15.9199 99.557 15.9199C96.797 15.9199 94.797 17.8799 94.797 21.0199C94.797 24.1599 96.797 26.1399 99.557 26.1399C101.217 26.1399 102.537 25.4399 103.277 23.9599H106.017C104.957 26.6799 102.457 28.1199 99.557 28.1199C95.637 28.1199 92.457 25.1999 92.457 21.0199Z" fill="white"/>
<path d="M90.5731 21.0199C90.5731 25.1999 87.4331 28.1399 83.4731 28.1399C79.5531 28.1399 76.373 25.1999 76.373 21.0199C76.373 16.8599 79.5531 13.9199 83.4731 13.9199C87.4331 13.9199 90.5731 16.8599 90.5731 21.0199ZM78.7131 21.0199C78.7131 24.1599 80.7131 26.1599 83.4731 26.1599C86.2331 26.1599 88.233 24.1599 88.233 21.0199C88.233 17.8799 86.2331 15.9199 83.4731 15.9199C80.7131 15.9199 78.7131 17.8799 78.7131 21.0199Z" fill="white"/>
<path d="M67.0927 14.0996C71.5527 14.0996 74.4727 16.7996 74.4727 21.0996C74.4727 25.3796 71.5527 27.9996 67.0927 27.9996H62.5527V14.0996H67.0927ZM64.8327 26.1396H67.0927C70.3727 26.1396 72.1327 24.2596 72.1327 21.0996C72.1327 17.9196 70.3727 15.9596 67.0927 15.9596H64.8327V26.1396Z" fill="white"/>
<path d="M55.0715 24.9402V18.8402H53.7715V16.9802H55.0715V14.2402H57.3715V16.9802H60.0515V18.8402H57.3715V24.9402C57.3715 25.7602 57.6915 26.1002 58.6515 26.1002H60.0515V28.0002H58.2515C56.2915 28.0002 55.0715 27.1802 55.0715 24.9402Z" fill="white"/>
<path d="M39.9961 22.4408C39.9961 19.0408 42.2961 16.8008 45.1961 16.8008C47.0561 16.8008 48.3361 17.6808 49.0161 18.5808V16.9808H51.3161V28.0008H49.0161V26.3608C48.3161 27.3008 46.9961 28.1808 45.1561 28.1808C42.2961 28.1808 39.9961 25.8408 39.9961 22.4408ZM49.0161 22.4808C49.0161 20.1208 47.3961 18.7808 45.6761 18.7808C43.9761 18.7808 42.3361 20.0608 42.3361 22.4408C42.3361 24.8208 43.9761 26.2008 45.6761 26.2008C47.3961 26.2008 49.0161 24.8608 49.0161 22.4808Z" fill="white"/>
<path d="M27.3691 27.9992V13.1992H29.6491V18.2592C30.4091 17.3392 31.6491 16.7992 33.0691 16.7992C35.5291 16.7992 37.4491 18.4192 37.4491 21.4992V27.9992H35.1891V21.8392C35.1891 19.8192 34.0891 18.7792 32.4291 18.7792C30.7491 18.7792 29.6491 19.8192 29.6491 21.8392V27.9992H27.3691Z" fill="white"/>
<path d="M10.7402 21.0199C10.7402 16.8599 13.9202 13.9199 17.8402 13.9199C20.7402 13.9199 23.2402 15.3799 24.3002 18.0999H21.5602C20.8202 16.6199 19.5002 15.9199 17.8402 15.9199C15.0802 15.9199 13.0802 17.8799 13.0802 21.0199C13.0802 24.1599 15.0802 26.1399 17.8402 26.1399C19.5002 26.1399 20.8202 25.4399 21.5602 23.9599H24.3002C23.2402 26.6799 20.7402 28.1199 17.8402 28.1199C13.9202 28.1199 10.7402 25.1999 10.7402 21.0199Z" fill="white"/>
<defs>
<linearGradient id="paint0_linear_865_471" x1="160" y1="0" x2="160" y2="42" gradientUnits="userSpaceOnUse">
<stop stop-color="#01A9FC"/>
<stop offset="1" stop-color="#015FDF"/>
</linearGradient>
</defs>
</svg>
