<svg width="241" height="42" viewBox="0 0 241 42" fill="none" xmlns="http://www.w3.org/2000/svg">
<path d="M0 4C0 1.79086 1.79086 0 4 0H119V42H4C1.79086 42 0 40.2091 0 38V4Z" fill="#505050"/>
<path d="M119 0H237C239.209 0 241 1.79086 241 4V38C241 40.2091 239.209 42 237 42H119V0Z" fill="url(#paint0_linear_865_483)"/>
<path d="M217.699 21.4392C217.699 18.0392 219.999 15.7992 222.919 15.7992C224.359 15.7992 225.879 16.4792 226.719 17.5192V12.1992H229.019V26.9992H226.719V25.3392C226.019 26.3392 224.699 27.1792 222.899 27.1792C219.999 27.1792 217.699 24.8392 217.699 21.4392ZM226.719 21.4792C226.719 19.1192 225.099 17.7792 223.379 17.7792C221.679 17.7792 220.039 19.0592 220.039 21.4392C220.039 23.8192 221.679 25.1992 223.379 25.1992C225.099 25.1992 226.719 23.8592 226.719 21.4792Z" fill="white"/>
<path d="M212.663 21.2008V27.0008H210.383V15.9808H212.663V17.5808C213.303 16.4808 214.403 15.8008 215.963 15.8008V18.1608H215.383C213.703 18.1608 212.663 18.8608 212.663 21.2008Z" fill="white"/>
<path d="M207.728 21.4808C207.728 24.9408 205.168 27.1808 202.008 27.1808C198.868 27.1808 196.488 24.9408 196.488 21.4808C196.488 18.0208 198.968 15.8008 202.108 15.8008C205.248 15.8008 207.728 18.0208 207.728 21.4808ZM198.808 21.4808C198.808 23.9808 200.288 25.2008 202.008 25.2008C203.708 25.2008 205.388 23.9808 205.388 21.4808C205.388 18.9808 203.768 17.7808 202.068 17.7808C200.348 17.7808 198.808 18.9808 198.808 21.4808Z" fill="white"/>
<path d="M184.076 21.4808C184.076 18.0408 186.316 15.8008 189.476 15.8008C192.176 15.8008 193.936 17.1408 194.556 19.4608H192.096C191.716 18.4008 190.836 17.7208 189.476 17.7208C187.636 17.7208 186.416 19.0808 186.416 21.4808C186.416 23.9008 187.636 25.2608 189.476 25.2608C190.836 25.2608 191.676 24.6608 192.096 23.5208H194.556C193.936 25.6808 192.176 27.1808 189.476 27.1808C186.316 27.1808 184.076 24.9408 184.076 21.4808Z" fill="white"/>
<path d="M181.972 23.9208C181.972 25.7808 180.352 27.1808 177.752 27.1808C175.112 27.1808 173.252 25.6208 173.152 23.6208H175.512C175.592 24.5208 176.452 25.2608 177.712 25.2608C179.032 25.2608 179.732 24.7008 179.732 23.9408C179.732 21.7808 173.332 23.0208 173.332 18.9808C173.332 17.2208 174.972 15.8008 177.572 15.8008C180.072 15.8008 181.712 17.1408 181.832 19.3408H179.552C179.472 18.3808 178.732 17.7208 177.492 17.7208C176.272 17.7208 175.632 18.2208 175.632 18.9608C175.632 21.1808 181.852 19.9408 181.972 23.9208Z" fill="white"/>
<path d="M168.079 26.9996V15.9796H170.359V26.9996H168.079ZM169.239 14.5196C168.419 14.5196 167.779 13.8796 167.779 13.0596C167.779 12.2396 168.419 11.5996 169.239 11.5996C170.039 11.5996 170.679 12.2396 170.679 13.0596C170.679 13.8796 170.039 14.5196 169.239 14.5196Z" fill="white"/>
<path d="M158.04 13.0996C162.5 13.0996 165.42 15.7996 165.42 20.0996C165.42 24.3796 162.5 26.9996 158.04 26.9996H153.5V13.0996H158.04ZM155.78 25.1396H158.04C161.32 25.1396 163.08 23.2596 163.08 20.0996C163.08 16.9196 161.32 14.9596 158.04 14.9596H155.78V25.1396Z" fill="white"/>
<path d="M92.457 21.0199C92.457 16.8599 95.637 13.9199 99.557 13.9199C102.457 13.9199 104.957 15.3799 106.017 18.0999H103.277C102.537 16.6199 101.217 15.9199 99.557 15.9199C96.797 15.9199 94.797 17.8799 94.797 21.0199C94.797 24.1599 96.797 26.1399 99.557 26.1399C101.217 26.1399 102.537 25.4399 103.277 23.9599H106.017C104.957 26.6799 102.457 28.1199 99.557 28.1199C95.637 28.1199 92.457 25.1999 92.457 21.0199Z" fill="white"/>
<path d="M90.5731 21.0199C90.5731 25.1999 87.4331 28.1399 83.4731 28.1399C79.5531 28.1399 76.373 25.1999 76.373 21.0199C76.373 16.8599 79.5531 13.9199 83.4731 13.9199C87.4331 13.9199 90.5731 16.8599 90.5731 21.0199ZM78.7131 21.0199C78.7131 24.1599 80.7131 26.1599 83.4731 26.1599C86.2331 26.1599 88.233 24.1599 88.233 21.0199C88.233 17.8799 86.2331 15.9199 83.4731 15.9199C80.7131 15.9199 78.7131 17.8799 78.7131 21.0199Z" fill="white"/>
<path d="M67.0927 14.0996C71.5527 14.0996 74.4727 16.7996 74.4727 21.0996C74.4727 25.3796 71.5527 27.9996 67.0927 27.9996H62.5527V14.0996H67.0927ZM64.8327 26.1396H67.0927C70.3727 26.1396 72.1327 24.2596 72.1327 21.0996C72.1327 17.9196 70.3727 15.9596 67.0927 15.9596H64.8327V26.1396Z" fill="white"/>
<path d="M55.0715 24.9402V18.8402H53.7715V16.9802H55.0715V14.2402H57.3715V16.9802H60.0515V18.8402H57.3715V24.9402C57.3715 25.7602 57.6915 26.1002 58.6515 26.1002H60.0515V28.0002H58.2515C56.2915 28.0002 55.0715 27.1802 55.0715 24.9402Z" fill="white"/>
<path d="M39.9961 22.4408C39.9961 19.0408 42.2961 16.8008 45.1961 16.8008C47.0561 16.8008 48.3361 17.6808 49.0161 18.5808V16.9808H51.3161V28.0008H49.0161V26.3608C48.3161 27.3008 46.9961 28.1808 45.1561 28.1808C42.2961 28.1808 39.9961 25.8408 39.9961 22.4408ZM49.0161 22.4808C49.0161 20.1208 47.3961 18.7808 45.6761 18.7808C43.9761 18.7808 42.3361 20.0608 42.3361 22.4408C42.3361 24.8208 43.9761 26.2008 45.6761 26.2008C47.3961 26.2008 49.0161 24.8608 49.0161 22.4808Z" fill="white"/>
<path d="M27.3691 27.9992V13.1992H29.6491V18.2592C30.4091 17.3392 31.6491 16.7992 33.0691 16.7992C35.5291 16.7992 37.4491 18.4192 37.4491 21.4992V27.9992H35.1891V21.8392C35.1891 19.8192 34.0891 18.7792 32.4291 18.7792C30.7491 18.7792 29.6491 19.8192 29.6491 21.8392V27.9992H27.3691Z" fill="white"/>
<path d="M10.7402 21.0199C10.7402 16.8599 13.9202 13.9199 17.8402 13.9199C20.7402 13.9199 23.2402 15.3799 24.3002 18.0999H21.5602C20.8202 16.6199 19.5002 15.9199 17.8402 15.9199C15.0802 15.9199 13.0802 17.8799 13.0802 21.0199C13.0802 24.1599 15.0802 26.1399 17.8402 26.1399C19.5002 26.1399 20.8202 25.4399 21.5602 23.9599H24.3002C23.2402 26.6799 20.7402 28.1199 17.8402 28.1199C13.9202 28.1199 10.7402 25.1999 10.7402 21.0199Z" fill="white"/>
<path d="M135.333 20.4803C136.295 20.4803 137.097 21.2002 137.017 22.0802C137.017 22.9602 136.295 23.6802 135.333 23.6802C134.371 23.6802 133.65 22.9602 133.65 22.0802C133.65 21.2002 134.371 20.4803 135.333 20.4803ZM141.426 20.4803C142.388 20.4803 143.11 21.2002 143.11 22.0802C143.11 22.9602 142.388 23.6802 141.426 23.6802C140.464 23.6802 139.743 22.9602 139.743 22.0802C139.743 21.2002 140.464 20.4803 141.426 20.4803ZM143.03 28C146.637 27.92 148 25.4401 148 25.4401C148 20.0803 145.675 15.7604 145.675 15.7604C143.35 14.0005 141.105 14.0005 141.105 14.0005L140.865 14.2405C143.671 15.1205 144.954 16.3204 144.954 16.3204C143.43 15.4405 141.747 14.9605 140.063 14.7205C138.861 14.6405 137.738 14.6405 136.696 14.8005H136.456C135.814 14.8805 134.451 15.1205 132.688 15.9204C132.127 16.1604 131.726 16.4004 131.726 16.4004C131.726 16.4004 133.089 15.1205 136.055 14.2405L135.895 14.0005C135.895 14.0005 133.65 13.9205 131.325 15.7604C131.325 15.7604 129 20.0803 129 25.4401C129 25.4401 130.363 27.84 133.97 28C133.97 28 134.612 27.28 135.093 26.6401C132.928 25.9201 132.127 24.6401 132.127 24.6401C132.127 24.6401 132.287 24.7201 132.608 24.9601L132.688 25.0401C132.768 25.0401 132.768 25.1201 132.848 25.1201C133.249 25.3601 133.65 25.5201 134.051 25.6801C134.692 25.9201 135.494 26.2401 136.456 26.4001C137.819 26.64 139.262 26.64 140.705 26.4001C141.506 26.2401 142.308 26.0001 143.11 25.6801C143.671 25.4401 144.312 25.1201 144.954 24.7201C144.954 24.7201 144.152 26.0801 141.987 26.72C142.388 27.28 143.03 28 143.03 28Z" fill="white"/>
<defs>
<linearGradient id="paint0_linear_865_483" x1="180" y1="0" x2="180" y2="42" gradientUnits="userSpaceOnUse">
<stop stop-color="#7488FE"/>
<stop offset="1" stop-color="#495AC2"/>
</linearGradient>
</defs>
</svg>
