<svg width="173" height="42" viewBox="0 0 173 42" fill="none" xmlns="http://www.w3.org/2000/svg">
<path d="M0 4C0 1.79086 1.79086 0 4 0H97V42H4C1.79086 42 0 40.2091 0 38V4Z" fill="#505050"/>
<path d="M97 0H169C171.209 0 173 1.79086 173 4V38C173 40.2091 171.209 42 169 42H97V0Z" fill="url(#paint0_linear_865_477)"/>
<path d="M151.176 20.5202C151.176 16.3602 152.296 13.1602 156.376 13.1602C160.456 13.1602 161.576 16.3602 161.576 20.5202C161.576 24.7602 160.456 27.9602 156.376 27.9602C152.296 27.9602 151.176 24.7602 151.176 20.5202ZM159.336 20.5202C159.336 17.8002 159.036 15.2402 156.376 15.2402C153.716 15.2402 153.416 17.8002 153.416 20.5202C153.416 23.3802 153.716 25.8802 156.376 25.8802C159.036 25.8802 159.336 23.3802 159.336 20.5202Z" fill="white"/>
<path d="M148.613 26.6807C148.613 27.5007 147.973 28.1407 147.173 28.1407C146.353 28.1407 145.713 27.5007 145.713 26.6807C145.713 25.8607 146.353 25.2207 147.173 25.2207C147.973 25.2207 148.613 25.8607 148.613 26.6807Z" fill="white"/>
<path d="M140.12 27.9999V15.4999H138.26V13.4199H142.42V27.9999H140.12Z" fill="white"/>
<path d="M135.996 26.6807C135.996 27.5007 135.356 28.1407 134.556 28.1407C133.736 28.1407 133.096 27.5007 133.096 26.6807C133.096 25.8607 133.736 25.2207 134.556 25.2207C135.356 25.2207 135.996 25.8607 135.996 26.6807Z" fill="white"/>
<path d="M120.123 20.5202C120.123 16.3602 121.243 13.1602 125.323 13.1602C129.403 13.1602 130.523 16.3602 130.523 20.5202C130.523 24.7602 129.403 27.9602 125.323 27.9602C121.243 27.9602 120.123 24.7602 120.123 20.5202ZM128.283 20.5202C128.283 17.8002 127.983 15.2402 125.323 15.2402C122.663 15.2402 122.363 17.8002 122.363 20.5202C122.363 23.3802 122.663 25.8802 125.323 25.8802C127.983 25.8802 128.283 23.3802 128.283 20.5202Z" fill="white"/>
<path d="M107.199 16.9805H109.639L112.759 25.9605L115.879 16.9805H118.299L114.099 28.0005H111.379L107.199 16.9805Z" fill="white"/>
<path d="M80.4156 17.7208C78.8756 17.7208 77.6356 18.7608 77.3956 20.5008H83.4956C83.4556 18.8008 82.1156 17.7208 80.4156 17.7208ZM85.5756 23.7208C84.9556 25.6408 83.2156 27.1808 80.5156 27.1808C77.3556 27.1808 75.0156 24.9408 75.0156 21.4808C75.0156 18.0208 77.2556 15.8008 80.5156 15.8008C83.6556 15.8008 85.8756 17.9808 85.8756 21.2208C85.8756 21.6008 85.8556 21.9608 85.7956 22.3408H77.3756C77.5356 24.1608 78.8356 25.2608 80.5156 25.2608C81.9156 25.2608 82.6956 24.5808 83.1156 23.7208H85.5756Z" fill="white"/>
<path d="M72.9118 23.9208C72.9118 25.7808 71.2918 27.1808 68.6918 27.1808C66.0518 27.1808 64.1918 25.6208 64.0918 23.6208H66.4518C66.5318 24.5208 67.3918 25.2608 68.6518 25.2608C69.9718 25.2608 70.6718 24.7008 70.6718 23.9408C70.6718 21.7808 64.2718 23.0208 64.2718 18.9808C64.2718 17.2208 65.9118 15.8008 68.5118 15.8008C71.0118 15.8008 72.6518 17.1408 72.7718 19.3408H70.4918C70.4118 18.3808 69.6718 17.7208 68.4318 17.7208C67.2118 17.7208 66.5718 18.2208 66.5718 18.9608C66.5718 21.1808 72.7918 19.9408 72.9118 23.9208Z" fill="white"/>
<path d="M49.9766 21.4408C49.9766 18.0408 52.2766 15.8008 55.1766 15.8008C57.0366 15.8008 58.3166 16.6808 58.9966 17.5808V15.9808H61.2966V27.0008H58.9966V25.3608C58.2966 26.3008 56.9766 27.1808 55.1366 27.1808C52.2766 27.1808 49.9766 24.8408 49.9766 21.4408ZM58.9966 21.4808C58.9966 19.1208 57.3766 17.7808 55.6566 17.7808C53.9566 17.7808 52.3166 19.0608 52.3166 21.4408C52.3166 23.8208 53.9566 25.2008 55.6566 25.2008C57.3766 25.2008 58.9966 23.8608 58.9966 21.4808Z" fill="white"/>
<path d="M42.6324 17.7208C41.0924 17.7208 39.8524 18.7608 39.6124 20.5008H45.7124C45.6724 18.8008 44.3324 17.7208 42.6324 17.7208ZM47.7924 23.7208C47.1724 25.6408 45.4324 27.1808 42.7324 27.1808C39.5724 27.1808 37.2324 24.9408 37.2324 21.4808C37.2324 18.0208 39.4724 15.8008 42.7324 15.8008C45.8724 15.8008 48.0924 17.9808 48.0924 21.2208C48.0924 21.6008 48.0724 21.9608 48.0124 22.3408H39.5924C39.7524 24.1608 41.0524 25.2608 42.7324 25.2608C44.1324 25.2608 44.9124 24.5808 45.3324 23.7208H47.7924Z" fill="white"/>
<path d="M32.3203 26.9992V12.1992H34.6003V26.9992H32.3203Z" fill="white"/>
<path d="M24.2164 17.7208C22.6764 17.7208 21.4364 18.7608 21.1964 20.5008H27.2964C27.2564 18.8008 25.9164 17.7208 24.2164 17.7208ZM29.3764 23.7208C28.7564 25.6408 27.0164 27.1808 24.3164 27.1808C21.1564 27.1808 18.8164 24.9408 18.8164 21.4808C18.8164 18.0208 21.0564 15.8008 24.3164 15.8008C27.4564 15.8008 29.6764 17.9808 29.6764 21.2208C29.6764 21.6008 29.6564 21.9608 29.5964 22.3408H21.1764C21.3364 24.1608 22.6364 25.2608 24.3164 25.2608C25.7164 25.2608 26.4964 24.5808 26.9164 23.7208H29.3764Z" fill="white"/>
<path d="M13.78 21.2008V27.0008H11.5V15.9808H13.78V17.5808C14.42 16.4808 15.52 15.8008 17.08 15.8008V18.1608H16.5C14.82 18.1608 13.78 18.8608 13.78 21.2008Z" fill="white"/>
<defs>
<linearGradient id="paint0_linear_865_477" x1="135" y1="0" x2="135" y2="42" gradientUnits="userSpaceOnUse">
<stop stop-color="#00F3FF"/>
<stop offset="1" stop-color="#008FC2"/>
</linearGradient>
</defs>
</svg>
